<svg viewBox="0 0 330 200" xmlns="http://www.w3.org/2000/svg"><g><g><g><g><g><line x1="51.5625" y1="177" x2="46.5625" y2="177" style="visibility: inherit;" fill="rgb(0, 0, 0)" stroke="rgb(204, 204, 204)" stroke-width="1px"></line><line x1="51.5625" y1="164.35714285714283" x2="46.5625" y2="164.35714285714283" style="visibility: inherit;" fill="rgb(0, 0, 0)" stroke="rgb(204, 204, 204)" stroke-width="1px"></line><line x1="51.5625" y1="151.7142857142857" x2="46.5625" y2="151.7142857142857" style="visibility: inherit;" fill="rgb(0, 0, 0)" stroke="rgb(204, 204, 204)" stroke-width="1px"></line><line x1="51.5625" y1="139.07142857142853" x2="46.5625" y2="139.07142857142853" style="visibility: inherit;" fill="rgb(0, 0, 0)" stroke="rgb(204, 204, 204)" stroke-width="1px"></line><line x1="51.5625" y1="126.42857142857144" x2="46.5625" y2="126.42857142857144" style="visibility: inherit;" fill="rgb(0, 0, 0)" stroke="rgb(204, 204, 204)" stroke-width="1px"></line><line x1="51.5625" y1="113.78571428571428" x2="46.5625" y2="113.78571428571428" style="visibility: inherit;" fill="rgb(0, 0, 0)" stroke="rgb(204, 204, 204)" stroke-width="1px"></line><line x1="51.5625" y1="101.14285714285714" x2="46.5625" y2="101.14285714285714" style="visibility: inherit;" fill="rgb(0, 0, 0)" stroke="rgb(204, 204, 204)" stroke-width="1px"></line><line x1="51.5625" y1="88.49999999999999" x2="46.5625" y2="88.49999999999999" style="visibility: inherit;" fill="rgb(0, 0, 0)" stroke="rgb(204, 204, 204)" stroke-width="1px"></line><line x1="51.5625" y1="75.85714285714282" x2="46.5625" y2="75.85714285714282" style="visibility: inherit;" fill="rgb(0, 0, 0)" stroke="rgb(204, 204, 204)" stroke-width="1px"></line><line x1="51.5625" y1="63.21428571428572" x2="46.5625" y2="63.21428571428572" style="visibility: inherit;" fill="rgb(0, 0, 0)" stroke="rgb(204, 204, 204)" stroke-width="1px"></line><line x1="51.5625" y1="50.57142857142857" x2="46.5625" y2="50.57142857142857" style="visibility: inherit;" fill="rgb(0, 0, 0)" stroke="rgb(204, 204, 204)" stroke-width="1px"></line><line x1="51.5625" y1="37.92857142857141" x2="46.5625" y2="37.92857142857141" style="visibility: inherit;" fill="rgb(0, 0, 0)" stroke="rgb(204, 204, 204)" stroke-width="1px"></line><line x1="51.5625" y1="25.285714285714256" x2="46.5625" y2="25.285714285714256" style="visibility: inherit;" fill="rgb(0, 0, 0)" stroke="rgb(204, 204, 204)" stroke-width="1px"></line><line x1="51.5625" y1="12.642857142857098" x2="46.5625" y2="12.642857142857098" style="visibility: inherit;" fill="rgb(0, 0, 0)" stroke="rgb(204, 204, 204)" stroke-width="1px"></line><line x1="51.5625" y1="0" x2="46.5625" y2="0" style="visibility: inherit;" fill="rgb(0, 0, 0)" stroke="rgb(204, 204, 204)" stroke-width="1px"></line></g><g transform="translate(41.5625, 0)"><text x="0" y="177" dx="0em" dy="0.3em" style="text-anchor: end; visibility: hidden; font-family: Roboto, sans-serif; font-size: 12px; font-weight: 200;" fill="rgb(255, 255, 255)" stroke="none" stroke-width="1px">1.2</text><text x="0" y="164.35714285714283" dx="0em" dy="0.3em" style="text-anchor: end; visibility: inherit; font-family: Roboto, sans-serif; font-size: 12px; font-weight: 200;" fill="rgb(255, 255, 255)" stroke="none" stroke-width="1px">1.25</text><text x="0" y="151.7142857142857" dx="0em" dy="0.3em" style="text-anchor: end; visibility: hidden; font-family: Roboto, sans-serif; font-size: 12px; font-weight: 200;" fill="rgb(255, 255, 255)" stroke="none" stroke-width="1px">1.3</text><text x="0" y="139.07142857142853" dx="0em" dy="0.3em" style="text-anchor: end; visibility: inherit; font-family: Roboto, sans-serif; font-size: 12px; font-weight: 200;" fill="rgb(255, 255, 255)" stroke="none" stroke-width="1px">1.35</text><text x="0" y="126.42857142857144" dx="0em" dy="0.3em" style="text-anchor: end; visibility: hidden; font-family: Roboto, sans-serif; font-size: 12px; font-weight: 200;" fill="rgb(255, 255, 255)" stroke="none" stroke-width="1px">1.4</text><text x="0" y="113.78571428571428" dx="0em" dy="0.3em" style="text-anchor: end; visibility: inherit; font-family: Roboto, sans-serif; font-size: 12px; font-weight: 200;" fill="rgb(255, 255, 255)" stroke="none" stroke-width="1px">1.45</text><text x="0" y="101.14285714285714" dx="0em" dy="0.3em" style="text-anchor: end; visibility: hidden; font-family: Roboto, sans-serif; font-size: 12px; font-weight: 200;" fill="rgb(255, 255, 255)" stroke="none" stroke-width="1px">1.5</text><text x="0" y="88.49999999999999" dx="0em" dy="0.3em" style="text-anchor: end; visibility: inherit; font-family: Roboto, sans-serif; font-size: 12px; font-weight: 200;" fill="rgb(255, 255, 255)" stroke="none" stroke-width="1px">1.55</text><text x="0" y="75.85714285714282" dx="0em" dy="0.3em" style="text-anchor: end; visibility: hidden; font-family: Roboto, sans-serif; font-size: 12px; font-weight: 200;" fill="rgb(255, 255, 255)" stroke="none" stroke-width="1px">1.6</text><text x="0" y="63.21428571428572" dx="0em" dy="0.3em" style="text-anchor: end; visibility: inherit; font-family: Roboto, sans-serif; font-size: 12px; font-weight: 200;" fill="rgb(255, 255, 255)" stroke="none" stroke-width="1px">1.65</text><text x="0" y="50.57142857142857" dx="0em" dy="0.3em" style="text-anchor: end; visibility: hidden; font-family: Roboto, sans-serif; font-size: 12px; font-weight: 200;" fill="rgb(255, 255, 255)" stroke="none" stroke-width="1px">1.7</text><text x="0" y="37.92857142857141" dx="0em" dy="0.3em" style="text-anchor: end; visibility: inherit; font-family: Roboto, sans-serif; font-size: 12px; font-weight: 200;" fill="rgb(255, 255, 255)" stroke="none" stroke-width="1px">1.75</text><text x="0" y="25.285714285714256" dx="0em" dy="0.3em" style="text-anchor: end; visibility: hidden; font-family: Roboto, sans-serif; font-size: 12px; font-weight: 200;" fill="rgb(255, 255, 255)" stroke="none" stroke-width="1px">1.8</text><text x="0" y="12.642857142857098" dx="0em" dy="0.3em" style="text-anchor: end; visibility: inherit; font-family: Roboto, sans-serif; font-size: 12px; font-weight: 200;" fill="rgb(255, 255, 255)" stroke="none" stroke-width="1px">1.85</text><text x="0" y="0" dx="0em" dy="0.3em" style="text-anchor: end; visibility: hidden; font-family: Roboto, sans-serif; font-size: 12px; font-weight: 200;" fill="rgb(255, 255, 255)" stroke="none" stroke-width="1px">1.9</text></g><line x1="51.5625" y1="0" x2="51.5625" y2="177" fill="rgb(0, 0, 0)" stroke="rgb(204, 204, 204)" stroke-width="1px"></line></g></g><g transform="translate(51, 0)" clip-path="url(#clip_0)"><clipPath id="clip_0"><rect width="278" height="176"></rect></clipPath><g><g><g><line x1="0" y1="0" x2="0" y2="177" fill="rgb(0, 0, 0)" stroke="rgb(189, 189, 189)" stroke-width="1px" opacity="0.25"></line><line x1="23.203125" y1="0" x2="23.203125" y2="177" fill="rgb(0, 0, 0)" stroke="rgb(189, 189, 189)" stroke-width="1px" opacity="0.25"></line><line x1="46.40625" y1="0" x2="46.40625" y2="177" fill="rgb(0, 0, 0)" stroke="rgb(189, 189, 189)" stroke-width="1px" opacity="0.25"></line><line x1="69.609375" y1="0" x2="69.609375" y2="177" fill="rgb(0, 0, 0)" stroke="rgb(189, 189, 189)" stroke-width="1px" opacity="0.25"></line><line x1="92.8125" y1="0" x2="92.8125" y2="177" fill="rgb(0, 0, 0)" stroke="rgb(189, 189, 189)" stroke-width="1px" opacity="0.25"></line><line x1="116.015625" y1="0" x2="116.015625" y2="177" fill="rgb(0, 0, 0)" stroke="rgb(189, 189, 189)" stroke-width="1px" opacity="0.25"></line><line x1="139.21875" y1="0" x2="139.21875" y2="177" fill="rgb(0, 0, 0)" stroke="rgb(189, 189, 189)" stroke-width="1px" opacity="0.25"></line><line x1="162.421875" y1="0" x2="162.421875" y2="177" fill="rgb(0, 0, 0)" stroke="rgb(189, 189, 189)" stroke-width="1px" opacity="0.25"></line><line x1="185.625" y1="0" x2="185.625" y2="177" fill="rgb(0, 0, 0)" stroke="rgb(189, 189, 189)" stroke-width="1px" opacity="0.25"></line><line x1="208.828125" y1="0" x2="208.828125" y2="177" fill="rgb(0, 0, 0)" stroke="rgb(189, 189, 189)" stroke-width="1px" opacity="0.25"></line><line x1="232.03125" y1="0" x2="232.03125" y2="177" fill="rgb(0, 0, 0)" stroke="rgb(189, 189, 189)" stroke-width="1px" opacity="0.25"></line><line x1="255.234375" y1="0" x2="255.234375" y2="177" fill="rgb(0, 0, 0)" stroke="rgb(189, 189, 189)" stroke-width="1px" opacity="0.25"></line><line x1="278.4375" y1="0" x2="278.4375" y2="177" fill="rgb(0, 0, 0)" stroke="rgb(189, 189, 189)" stroke-width="1px" opacity="0.25"></line></g><g><line x1="0" y1="177" x2="278.4375" y2="177" fill="rgb(0, 0, 0)" stroke="rgb(189, 189, 189)" stroke-width="1px" opacity="0.25"></line><line x1="0" y1="164.35714285714283" x2="278.4375" y2="164.35714285714283" fill="rgb(0, 0, 0)" stroke="rgb(189, 189, 189)" stroke-width="1px" opacity="0.25"></line><line x1="0" y1="151.7142857142857" x2="278.4375" y2="151.7142857142857" fill="rgb(0, 0, 0)" stroke="rgb(189, 189, 189)" stroke-width="1px" opacity="0.25"></line><line x1="0" y1="139.07142857142853" x2="278.4375" y2="139.07142857142853" fill="rgb(0, 0, 0)" stroke="rgb(189, 189, 189)" stroke-width="1px" opacity="0.25"></line><line x1="0" y1="126.42857142857144" x2="278.4375" y2="126.42857142857144" fill="rgb(0, 0, 0)" stroke="rgb(189, 189, 189)" stroke-width="1px" opacity="0.25"></line><line x1="0" y1="113.78571428571428" x2="278.4375" y2="113.78571428571428" fill="rgb(0, 0, 0)" stroke="rgb(189, 189, 189)" stroke-width="1px" opacity="0.25"></line><line x1="0" y1="101.14285714285714" x2="278.4375" y2="101.14285714285714" fill="rgb(0, 0, 0)" stroke="rgb(189, 189, 189)" stroke-width="1px" opacity="0.25"></line><line x1="0" y1="88.49999999999999" x2="278.4375" y2="88.49999999999999" fill="rgb(0, 0, 0)" stroke="rgb(189, 189, 189)" stroke-width="1px" opacity="0.25"></line><line x1="0" y1="75.85714285714282" x2="278.4375" y2="75.85714285714282" fill="rgb(0, 0, 0)" stroke="rgb(189, 189, 189)" stroke-width="1px" opacity="0.25"></line><line x1="0" y1="63.21428571428572" x2="278.4375" y2="63.21428571428572" fill="rgb(0, 0, 0)" stroke="rgb(189, 189, 189)" stroke-width="1px" opacity="0.25"></line><line x1="0" y1="50.57142857142857" x2="278.4375" y2="50.57142857142857" fill="rgb(0, 0, 0)" stroke="rgb(189, 189, 189)" stroke-width="1px" opacity="0.25"></line><line x1="0" y1="37.92857142857141" x2="278.4375" y2="37.92857142857141" fill="rgb(0, 0, 0)" stroke="rgb(189, 189, 189)" stroke-width="1px" opacity="0.25"></line><line x1="0" y1="25.285714285714256" x2="278.4375" y2="25.285714285714256" fill="rgb(0, 0, 0)" stroke="rgb(189, 189, 189)" stroke-width="1px" opacity="0.25"></line><line x1="0" y1="12.642857142857098" x2="278.4375" y2="12.642857142857098" fill="rgb(0, 0, 0)" stroke="rgb(189, 189, 189)" stroke-width="1px" opacity="0.25"></line><line x1="0" y1="0" x2="278.4375" y2="0" fill="rgb(0, 0, 0)" stroke="rgb(189, 189, 189)" stroke-width="1px" opacity="0.25"></line></g></g></g><g><g><line x1="0" y1="480.42857142857144" x2="278.4375" y2="480.42857142857144" fill="rgb(0, 0, 0)" stroke="rgb(153, 153, 153)" stroke-width="1.5px"></line></g></g><g><g><line x1="23.203125" y1="0" x2="23.203125" y2="177" fill="rgb(0, 0, 0)" stroke="rgb(153, 153, 153)" stroke-width="1.5px"></line></g></g><g><g><g><g><g><path stroke="rgb(238, 51, 119)" stroke-width="2px" d="M23.32749375,366.2233900215802L23.3390953125,25.058291517853664L23.738421093750002,111.94997851188089L23.7799546875,-68.04773761184981L24.245409374999998,7.895748143469216L24.3943734375,62.376269828449345L24.76028671875,106.31386800330772L24.934774218749997,140.71923728308516L25.351734375000003,141.06427220743015L25.399996875,-73.4363314746603L25.73342578125,-35.137313481300275L25.747579687499996,0.3185834908024532L25.98030703125,31.288882515336535L26.519779687499998,52.769164724938136L26.63231484375,60.42767199847211L26.942540625000003,82.89535576235072L27.76021875,91.71707164356904L27.8581359375,109.9887751663554L27.968814843750003,104.30411303118436L27.9778640625,119.67315208481287L28.042136718749997,134.67054734840923L28.14979921875,141.77814420928172L28.3843828125,152.94381937396176L28.62360703125,165.11086574776508L28.702497656250003,176.25848598626663L28.80598359375,186.03391595612078L29.06261015625,211.72042990849212L30.12438515625,131.48460775254102L30.306065625,141.31361265049404L30.3278765625,150.54457442467728L30.613274999999998,142.3433052196042L30.72905859375,150.52088218213086L30.90215390625,158.99697870143584L31.03394765625,165.9217235183985L31.042300781250002,173.56193097621943L31.05483046875,180.43371373516632L34.281225,215.0663514388887L34.38262265625,108.22802652755334L35.478970312499996,114.1954012900015L35.7007921875,119.4830780626593L36.317763281249995,117.2208441280033L36.834032812500006,122.8371707384574L37.16653359375,127.80796991978706L37.167925781250005,127.39658758225193L37.23521484375,126.06868691830665L37.62131484375,105.22788864518621L37.97678671875,104.06541853590521L38.17401328125,109.49231494448071L38.43435234375,113.62019609266999L38.69979609375,118.49307107802537L38.75409140625,123.43572332696004L38.851312500000006,128.10352013025098L39.25620703125,102.09765253828019L39.380111718749994,107.15729583623228L39.597525,112.10756625450085L39.776653124999996,4.660303289686342L39.8875640625,-16.585110121998007L40.14349453125,-3.8836493114738593L40.8880828125,0.20729243349164395L41.349825,5.960175049245901L41.51503125,-51.714327841800426L44.140928906250004,-1.8638253083179945L44.46809296875,2.5808028270191072L44.57784375,7.471811152494014L44.89131796875,11.468653540109617L44.99109140625,13.94375257023657L45.33356953125,7.3083692959546775L45.357468749999995,11.987420253537802L45.54796640625,13.954816489285703L46.052170312499996,17.379581727176568L46.379334375,21.82430518121945L46.6053328125,26.188018623284076L46.71601171875,16.42043099604419L46.85708671875,19.50338062195038L47.102575781249996,18.58471964530399L47.4118734375,22.806438836211992L47.542275,25.695800888993194L47.548771875,29.54422879806198L47.745998437500006,32.30388075544958L48.22467890625,36.277993262496324L48.3984703125,-15.902322776874145L51.32345625,-0.9502536706273084L51.32368828125,2.836341761877469L51.355940624999995,6.637125152977366L51.37241484375,9.439581312187125L51.472652343750006,0.36444383786462853L51.55850390625,3.072707898074268L51.6580453125,2.689680744979575L52.2743203125,6.435141403517099L53.383661718750005,10.007466236957669L53.757,13.51119909883061L53.802478125,16.94405061743464L54.38255625,20.441020210889125L54.38557265625,23.833952648077602L54.4052953125,27.18007268204834L54.49880390625,30.13373035418491L54.670042968749996,32.71050837447375L54.91553203125,36.01468274718576L54.9166921875,39.22551657558372L55.004167968750004,41.60729889342442L55.548977343749996,44.74496434031292L55.55965078125,47.84136926700331L55.681699218750005,49.6123801355481L55.70026171875,51.85186077830715L55.8615234375,54.83244422142848L55.91697890625,27.764003872354493L55.9710421875,30.92050558791535L56.358534375000005,33.197779388119265L56.668064062499994,33.94758818781309L56.68175390625,36.94797006467479L57.15208125,39.92619936469072L57.241181250000004,42.86621207091954L57.42564609375,44.171904850125415L57.69990703125,46.80464525077875L58.1836921875,49.67633777317775L58.208055468750004,50.5324734958363L58.2495890625,53.23499543639183L58.303884375,55.38389310028573L58.6496109375,58.036037529862014L59.21182265625,60.76452856243758L59.551284374999994,63.49805371677629L59.662195312499996,65.64144224048728L59.731804687499995,67.95869165893957L59.776586718749996,70.52299270211728L60.386596875,73.05501373317337L60.92746171875,75.4581732049976L60.97526015625,77.89781861590653L61.0929,80.34798229996906L61.4005734375,82.6961327839344L61.595711718749996,85.0910741038167L61.626803906250004,87.15607992807955L61.67390625,89.49827688480664L62.0066390625,91.47677427801955L62.044228125000004,93.65525538557442L62.101771875,95.91035351963723L62.49135234375,98.02219614078456L62.63985234375,100.23857755218694L62.692059375,102.44151288624084L63.03337734375,104.61533381801452L63.03569765625,101.93559720139324L63.338034375,103.97128618231787L63.366110156249995,106.07350598846645L63.473540625,107.61797788122483L63.72668671875,109.52011247297455L64.45294453125,111.57631159605185L64.54923749999999,113.62023826115689L64.65806015625,113.0127697606993L64.66734140625,114.94588805792169L64.782196875,116.82811339309235L65.04183984375,118.70765154326811L65.21215078125,120.130324385988L65.225840625,122.05844823328889L65.45299921875,123.97681714532044L65.65301015625,125.87934250185806L65.72772421875,127.75518775898352L65.8035984375,129.53402060443696L66.1423640625,131.37225094083755L66.41476875,125.17153903321523L66.6138515625,126.62412762850434L66.62545312499999,128.0682690321316L66.81177421875,129.89003630881456L67.1317453125,131.6470342482487L67.3674890625,112.9684946210944L67.80301171875,114.83060819694188L68.51813203125,115.05871480147985L68.54203125000001,116.94088890671219L68.59284609375,118.8040366011855L68.8497046875,120.64115887390055L69.34277109375,122.26378572312053L69.44393671875,123.91905681116275L69.65833359375,114.96963706444981L69.93445078124999,116.33296428864303L70.054875,118.00604964005487L71.0270859375,116.96092420032544L71.2451953125,118.26398096752688L71.37490078125,119.99268284290343L71.639184375,121.17916048323706L71.6823421875,118.36546002087749L71.92690312500001,119.57564843176827L71.97400546875001,121.0948683832449L72.64875234375,122.5209358572034L72.82695234375,123.68667227922055L73.1664140625,125.27256653403691L73.31096953125,126.85259241500589L73.32721171875,128.52280467327026L73.333940625,119.12466092475906L73.75507734375,120.39044911472922L74.1372328125,122.05772930005071L74.21774765625,123.22714174158143L74.31148828124999,123.47153331602199L74.44421015625001,125.11938412013795L74.5446796875,126.71780251212597L75.07069453125,128.01674656021555L75.37419140625,129.63365645153746L75.69949921875,131.20316081185226L75.72223828125,132.77109457761154L75.72502265625,132.68190198272097L75.96958359375,134.19808501271135L76.14592734374999,135.7341086618499L76.24152421875,137.13248891056043L76.24222031250001,138.68176259909237L76.40557031249999,140.1791832194959L76.80768046875001,141.6068673910379L77.048296875,143.0802732737738L77.45411953125,144.53010239903946L77.6047078125,145.7047647146645L77.71121015625,147.14413873887364L77.78035546875,148.4726256723332L78.43746796875,149.2469353480102L78.56926171875,143.50373910134968L78.7370203125,144.4482260169227L78.9124359375,145.57067951370857L79.24586484375001,146.51707306880488L79.26860390625001,135.1645456380275L79.36953749999999,136.57062814999543L79.43381015625,138.00555902215189L80.02757812499999,137.8002872072886L80.2944140625,139.1877802348981L80.63248359375,139.33296425676718L80.96962500000001,140.57590937344602L81.135759375,141.87888208021516L81.21650625,142.03055495562913L81.41257265624999,142.58598703268675L81.51698671875,143.95693271214134L81.627665625,143.54367949400614L81.6903140625,144.86843825295398L82.00889296874999,146.23796048972298L82.23697968750001,146.88172111130933L82.27851328125,147.70142769070392L82.60196484375,148.89732645913497L82.82239453125001,143.76817325557946L83.11521796875,145.10251648463284L83.14839843749999,145.18320340321893L83.32497421875,146.47508598478805L83.75237578125,147.7842449586129L84.1141125,148.55074214261649L84.13406718750001,148.08049385164136L84.19323515625001,148.93111744504836L84.44707734375,148.62602368840555L84.508565625,149.41408967494974L84.682125,150.67871976985813L84.75451875,151.94294426280618L84.83085703124999,152.18364070600657L84.85243593749999,153.43912705643996L85.36360078125001,149.44155998355922L85.54690546875,150.27017124716608L85.98915703124999,150.72566350842362L86.05134140625,151.96933898549202L86.095659375,152.7515798787157L86.33256328125,153.84308651943587L86.39544375,151.47332141144508L86.48988046875,150.6846444092495L86.53327031250001,151.93812944779341L87.1049953125,153.12073761684417L87.1337671875,154.2813738696619L87.57764296875,155.4810058517114L87.91176796875001,155.99710502854444L87.95098125,156.89741441294927L88.05145078125,158.01289429643572L88.05609140624999,159.18659733707992L88.38163125,160.35287923160362L88.46817890625,161.17037021852107L88.7867578125,162.28108934371576L89.0317828125,163.3213284020177L89.17030546875,164.31400767636757L89.3055796875,165.21645279289498L89.45663203125001,166.32530573598638L89.82927421875,167.4419771553368L90.20446875,167.9141730493019L90.34461562499999,168.99959401317645L90.68152500000001,169.51842660517804L91.37993906250001,170.60203959623584L91.42054453125,171.68198161884033L91.7470125,172.7159134793923L91.78529765625001,172.95481623234323L92.08879453125,174.0617631621208L92.42988046875001,175.17255825874304L92.61945,154.35604671590303L92.69300390625,155.3713492668962L93.00578203124999,156.49338080001925L93.23688515625,157.61184975080835L93.37656796875,158.66206057609034L93.3911859375,159.73278281572982L93.74596171875001,160.79891470894586L94.76411484375,161.47244243052447L94.86713671874999,162.51446561945477L94.90286953124999,139.84924871798458L95.07410859375,131.46431811963498L95.113321875,127.30341310389343L95.11981875,128.35024449234677L95.51311171875001,129.51649518545383L95.77205859375,127.70041970406413L96.12845859375,126.13049378350163L96.33218203125001,127.30595411496893L96.9904546875,125.6802005450757L97.08396328125,126.85996927486512L97.181184375,127.84964064661945L97.24684921875,59.03709741432747L97.32202734375,60.43862141399215L97.43943515625,61.868510113920344L97.5185578125,63.19960573451212L97.6522078125,64.60525781642761L97.77402421875,65.88733697083336L98.007215625,67.13568997796888L98.16058828125001,68.47632435790034L98.4517875,69.79313762232768L98.54111953124999,68.9966980694849L98.62766718750001,70.33307369941174L99.5530078125,71.07271986382898L99.78434296875,72.39370638426436L99.85023984374999,73.54774615642113L99.99827578125,74.85536000575235L100.1535046875,76.0956002272834L100.22566640625,69.56306415577984L100.23193125,70.67695062860379L100.52916328125,71.75172683747815L100.80551249999999,73.03402864310071L100.81224140625001,74.3255585857585L101.25658125,75.34054772056649L101.33361562500001,71.98062375922687L101.79396562500001,63.523894105963336L101.80046250000001,64.69569322839767L101.83619531250001,65.96907226791672L102.50235703125,67.13908098666506L102.80492578125,68.27498560148224L103.13858671875,69.52384929570175L103.14554765625,70.74493395050199L103.18916953125,71.5850385270084L103.31864296875,72.77221792154954L103.74372421875,72.25437126237385L103.99269375,73.34068864064758L104.26417031250001,74.2571821257398L105.023840625,72.65525845114006L105.02500078125,73.55956245617362L105.15772265625,74.80612044300119L106.28957109375,76.01694898202625L106.30790156249999,77.14384446780252L106.315790625,78.39270133049962L106.45756171875,76.9583910606401L106.5909796875,78.20515913473952L106.68564843749999,79.3774555198333L106.83855703124999,80.55329902985748L106.99448203125,81.7521643609745L107.73999843749999,82.87956535979693L107.8411640625,84.06783551673952L107.84766093750001,82.41693901443666L108.66394687500001,83.57171295597941L109.24889765625001,83.59769972586861L109.31572265624999,83.34997056129654L109.45540546875,84.45931304146714L110.07260859375,85.62075393661142L110.18119921875001,86.7775559058161L110.22667734375,87.92119202275603L110.34222890625,89.01231156555588L110.7443390625,83.12482890998596L110.76498984375,83.35722630861676L111.3132796875,83.49500045338844L111.335090625,84.65857519772827L111.46340390625,85.45274391843135L111.52512421875,86.60919260816799L111.758315625,87.46402999919158L112.05044296874999,86.83713550022415L112.0989375,87.97047060612445L112.65279609375,89.07809448359423L112.7101078125,90.1414691921037L112.83006796875,91.2788078813015L113.14911093750001,92.33250804389073L113.16372890624999,93.43269342666646L113.22707343750001,93.98522719460183L113.42569218749999,95.09354066197324L113.60598046875,96.18399614040081L113.97862265625,95.16351218024363L114.21575859375001,96.18850171894343L114.83528203125,97.26209078669274L114.9960796875,98.33635882444842L115.28681484375001,99.21443304439936L115.4378671875,100.2919498182215L115.53648046875,101.34978734863647L115.597040625,100.93434485460787L115.8490265625,101.98917551163463L116.0615671875,102.37022634001738L116.7372421875,103.41673222354596L116.80638750000001,104.30947044287116L116.99038828125,94.09363572130196L117.35189296875,95.15742319048078L117.37231171875001,94.76314723210173L117.75980390625,95.82109606882895L117.86004140625,84.33583150906337L118.62760078125001,85.07016809809768L118.817634375,85.4910131419231L119.1735703125,86.05101348530721L119.49980625,87.12010038087881L119.52765,88.11551373533035L119.643665625,89.17452855801184L119.75248828125001,90.21722543641907L119.9977453125,91.31104378924402L120.091021875,92.26232680570483L120.1476375,93.23639463627389L120.26434921875,94.13325461376519L120.46760859375,91.17207902154564L120.62562187500001,91.94264730467088L121.01148984375,92.97913894909185L121.2377203125,93.98286646159187L121.46070234375,94.78034143217155L121.52683125,95.80354975501761L121.82359921875,96.67498856716485L121.824759375,97.68771222389903L121.95980156249999,98.69964386952041L122.18185546875,99.70129177401178L122.2934625,100.51380004083184L122.57259609375,101.51289328532238L122.6456859375,102.50239178144656L123.00695859375,103.42619436111228L123.14617734375,104.41958704981067L123.45733125,105.40926092812633L123.5032734375,105.55809736160815L124.1158359375,106.5329048583303L124.2578390625,106.18815079268197L124.29241171875,107.17440089294175L124.41747656250001,105.20309762546498L124.90427812499999,105.84777161619292L125.02423828124999,106.83126833401754L125.8189453125,105.58273583285995L125.82799453125,103.43040951309207L125.90850937500001,104.39211702722466L126.0054984375,105.29081088247484L126.18764296875,104.05188043768695L126.42802734374999,100.28310772983156L126.53847421875001,101.10618620407817L127.03780546875001,102.07123126160941L127.2445453125,102.88241251573953L127.301625,102.77004010787797L127.38446015625,103.72258686677534L127.43643515625,104.52352809722365L127.48516171874999,104.70660459058662L127.717425,104.01337094798313L127.72508203125001,101.3681370764977L128.20840312500002,102.20170982999576L128.54972109375,103.06868136384429L128.63766093750002,92.76410479509987L128.93396484375,91.81302965186988L129.57761953125,92.75923029999667L129.93309140625,93.71653435516488L130.0224234375,93.27312896015651L130.170459375,94.04269992208874L130.71086015625,95.00193569403152L130.98697734375,92.23110740452725L131.3923359375,90.34381152900652L131.57587265625,91.33169099407743L131.93296875,92.28787337822524L132.75900000000001,93.15498907709751L132.836034375,94.06904593310713L132.87223125,95.01654183163848L132.8968265625,95.9472283738872L133.52957578125,93.157919136408L133.72541015625,94.04471155550436L133.75186171875,94.94105158765569L133.80383671875,95.76627882055378L133.85813203125,96.58072720211376L133.91033906250001,97.42816049016014L133.912659375,97.93323099270201L134.22729375,98.88443618425774L134.28506953125,99.78875408436672L134.35514296875,97.8021689478022L134.38368281249998,98.72453938700009L134.53055859375,99.45374993930305L134.6723296875,100.31611813527006L134.84380078125,101.20102873135521L134.88138984375,102.05501451332535L135.724359375,95.28917944326386L135.73108828125,91.85882677436844L135.75661171874998,84.13308390253323L136.0923609375,84.9460843392827L136.53484453125,85.05817094268514L137.00586796875,85.74667581267738L137.01793359375,85.80986307393725L137.46946640625,82.21625760378848L137.87389687499999,83.0358960616047L138.9593390625,83.81809234628486L139.0140984375,84.7510223609466L139.37629921875,85.6923343812581L139.540809375,84.14920126333938L139.6025296875,83.1565429336026L140.17448671875,83.6232767889278L141.08590546874998,82.94360787813491L141.244846875,82.86082132711725L141.48499921875,83.78996261806523L141.48523125,84.71402358442764L141.6536859375,84.58086160583422L141.81494765625,85.45261445781892L141.958575,85.91050372762608L142.2031359375,86.24748842174571L142.573921875,87.10206977715613L142.82149921874998,87.98849784625011L142.85769609375,87.25944680184766L143.0760375,87.32391072926669L143.1488953125,88.1530362315332L143.48998125,86.65280793915343L143.59021875000002,87.52703171740531L143.62896796874998,88.42796092468029L144.68378203125002,89.23729665730141L144.77241796875,89.91411188234665L145.06686562500002,87.88810193062908L145.17568828125002,88.78238641678612L145.71910546875,88.6892815729165L145.91633203125002,89.54597881280229L145.94649609375,90.13973128582327L146.01610546875,90.6296654962473L146.04348515625,91.20415578595527L146.07828984374999,92.08445356639848L146.2738921875,92.95534727474208L146.30289609375,85.44237354398673L146.6029125,86.32584968013214L146.79851484375,86.97808528715808L146.85420234375002,87.46564150440491L146.97578671875,88.11521837238305L147.16674843750002,88.79471047191899L147.2688421875,88.89353039754491L147.62547421874999,86.7741724146027L147.720375,87.62224139713507L147.79508906249998,85.03717680705554L148.48491796874998,85.90189494601057L148.88215546875,86.76170929665217L149.08495078125,87.64614492937208L149.37661406249998,88.52245142015346L149.69240859375,89.38920601824485L150.1812984375,90.16266797539687L150.2481234375,91.0390732402842L150.4588078125,91.8969760974118L150.69571171875,92.15457705221729L150.7572,92.83871245804826L151.5874078125,93.67395711373939L151.90459453125,86.78798526943052L152.33849296875002,87.6500502256832L152.428753125,87.47829229638324L152.45218828125,87.93640188215032L152.55660234375,88.70880277470472L152.73410625,89.55845794531767L152.74895625000002,89.72805369296873L152.88979921875,90.25159854889985L152.94339843749998,91.08937583016186L152.9675296875,91.94992540724813L152.99653359375,92.76406133452555L153.1280953125,88.82413634577826L153.7248796875,89.65932941677815L153.957375,90.49770140735698L154.19752734375,91.33304452362289L154.28639531250002,86.86043752128664L154.32653671875,86.93590390753194L154.3810640625,87.72642944655445L154.52399531249998,85.75066377521667L154.6632140625,86.16928344859515L154.9100953125,87.02624150107431L154.94327578125,87.84764014994582L155.21243203125002,88.61066273492537L155.27392031250002,89.45850338577681L155.51592890625,89.81449786096812L156.18301875,90.25174881268623L156.3997359375,91.02862540689708L156.66285937499998,80.38686925454792L157.19096249999998,81.07503729181529L157.2768140625,81.92677145430108L157.72672265625002,82.30506070432162L158.09124375,83.11550132600189L158.205403125,83.95825837146943L158.50681171875,84.73060237394557L158.62004296875,85.55067586884587L158.87202890625,86.368720524864L158.9878125,87.21005258823114L159.08456953125,87.87970643388621L159.11635781249998,88.33780536739812L159.1734375,88.55057218564666L159.35511796875002,83.52994946068753L159.49990546875,83.94715330607622L159.76140468749998,84.69793388720639L159.91570546875002,84.57922688557346L159.9238265625,85.35544394914811L159.94146093749998,86.19497892373819L160.04448281249998,86.99130013857094L160.21270546875002,87.77784894235769L160.21827421875,88.58857408874671L160.27419375,89.40372295275284L160.93710703124998,89.72551465882943L161.567071875,90.40959458008533L162.37570078124998,91.0402336713203L162.37987734375002,91.82786422121116L162.49542890625,92.62139203484216L162.7499671875,93.41130039554552L163.22818359375,94.18875634360927L163.37784375,94.96550805736008L163.391765625,93.63239453232012L163.99922343749998,93.09696853641616L164.45516484375,93.82285395027081L164.5417125,94.36268259808494L164.848921875,95.07680263326355L164.91783515625002,95.8328723556849L165.30903984375,96.61447553818796L165.882853125,94.73625031604482L166.19400703124998,95.48890769366014L166.46501953125,96.27161161886421L167.77947656249998,96.80408781409292L167.85349453125002,97.58524250973102L167.89015546875,98.32458242059435L168.12914765624998,98.68228710964476L168.32614218749998,99.45134808629092L168.43728515625,99.61409689797006L168.6361359375,100.350212709135L169.60301015625,97.62774151291188L169.68978984375,98.34296578234066L170.007440625,99.10380833241636L170.10605390625,99.64761824139349L170.72163281250002,100.40575653678123L171.61100859375,101.16003350663439L171.6200578125,101.91378976949875L172.05975703125,102.23877635807803L172.1268140625,102.94351461953563L172.38506484375,103.68681836163891L172.41986953125001,104.35756912996125L172.89089296875,93.83301238418632L172.96978359374998,94.50893765505205L173.14844765625,94.23561711212689L173.15401640624998,93.82414869756116L173.4071625,94.58675652295794L173.50554375000002,95.27435236898457L173.80509609375,94.96237357216813L174.16799296874999,95.41570599081744L174.47937890625,96.06714869442798L174.73182890625,95.71431865423092L174.8787046875,96.47065552864252L174.89401875000001,97.08417085761158L175.14809296875,97.81277923053354L175.207725,98.55822766561901L175.40959218749998,99.29209194853762L175.5580921875,99.93708982447055L175.84511484375,100.6788323720107L175.973428125,101.35317042736018L176.0193703125,102.08780025438857L176.15139609375,102.82092779332392L176.37043359375002,103.4450488190826L176.92290000000003,104.17291355054702L177.0969234375,104.49219286795953L177.15098671875,104.76392211187537L177.52641328125,104.72867740689492L177.57096328125,105.1941604161538L177.70113281250002,105.23268623017967L178.01182265625002,105.95666593412415L178.04198671875,106.64463735701136L178.06959843750002,105.89814571017725L178.08398437499997,105.02885264822143L178.10788359375,105.56814686927535L178.215778125,106.18108734895257L178.3002375,105.70607898669371L178.48563046875,106.42182632083238L179.23091484374999,107.12989974554665L180.15834375,107.72537667499827L180.3792375,108.30104493833237L180.68551875,108.90071220974535L181.31177109375,109.60905313413402L181.42453828125002,110.31589114807113L181.43196328125,107.61654158960326L182.00856093750002,108.31921730375345L182.078634375,109.03495399234195L182.21506875,109.73742532586698L182.2874625,110.44611737303676L182.44269140625002,111.15678184896363L182.66010468750002,110.35963383744901L182.7705515625,111.04935164669918L182.885175,111.62221077140515L183.01116796875,111.97746689055857L183.07660078125,112.65185310057534L183.8072671875,113.34947941477839L183.8193328125,114.04021384802314L183.834646875,114.6161217763609L184.09962656250002,115.30323753821438L184.16389921875,115.79083143993182L184.24371796875,116.47728790406913L184.3576453125,117.14355712550851L184.40196328125,117.8145131776081L184.4407125,118.13177028465911L184.87066640625,118.79216856653649L185.14051875,119.33226674458551L185.20386328125002,120.0077941309941L185.53427578125002,120.52974000413096L185.70853125000002,120.58887044631497L185.7581859375,121.08167900934515L186.53572265625,121.73636541726962L186.65869921875,122.2144864030816L186.67122890625,122.87690168223465L187.02391640625,123.54111283692738L187.39145390625,123.34130160871464L187.87686328125,124.0109780624387L187.9160765625,124.66390147898466L187.98011718749999,125.3436236967174L188.37410625,125.89684539665164L188.67226640625,126.560619960584L188.8822546875,127.2354793235812L189.05999062499998,127.80057007291782L189.21313125,128.35687795293407L189.33935625,129.02353972776135L189.5198765625,102.96226555763155L189.71223046875,103.67977176953295L189.85980234375,103.90185605717988L190.025240625,104.59722601889709L190.04774765625,105.30752497332504L190.12385390625,106.01795297152799L190.25936015624998,105.25198152677689L191.06845312500002,105.95845157126882L191.21857734375,106.23792566075241L191.40861093750001,106.91810755649381L191.74203984375,107.62245436020106L191.88357890625,105.3353331568685L192.091246875,102.28678933160778L192.10818515625,102.98559760888193L192.25946953124998,103.49167295702962L192.38267812499998,104.19881626309233L192.386390625,103.0219459484679L192.40588125,103.71249770510903L192.91936640625,104.41821291127441L193.05719296875,103.8189232340104L193.41150468749998,103.15375194197085L193.51986328125,91.12982718314034L193.92429375,91.81118667116938L193.94958515625,92.42526685124018L194.19228984375002,93.1345981710873L194.2217578125,89.45931437885882L194.66656171875,90.16597346912536L195.07308046875,90.28509049484809L195.35175,90.9646382145562L195.38539453125,89.41413499530468L195.7489875,90.08348264884744L195.93832500000002,90.80253714864271L195.99749296875,90.85139831269204L196.07290312499998,91.52905782941711L196.91401640625,92.18001916920302L197.24303671875,92.84615066181344L197.246053125,90.66929999929775L197.2678640625,91.2961255705763L197.366709375,91.7897421223341L197.48179687500001,92.42368819738542L197.48991796875,93.10409754925512L197.6010609375,93.63636952507284L197.75768203125,94.33324208479448L197.9750953125,94.86688403735477L197.98460859375,82.30378675389312L197.99156953125,82.36521533162508L198.66190781249998,79.77174312461163L198.7110984375,80.15735117280917L198.78302812500002,80.88323750754628L198.83384296875,81.58931016605722L198.8484609375,82.23518449189073L199.00554609375,82.83014775671008L199.09557421875002,82.84165627829202L199.4243625,83.44462867323979L199.59444140625,84.13060613970592L199.87450312500002,84.84824906408225L200.203059375,85.53088480582053L200.33995781250002,86.19075144214709L200.6272125,85.53555793983057L200.84508984375,86.21248773621177L201.1158703125,86.8107302852629L201.25300078125,85.91892498138724L201.46229296875,86.5145565237775L201.87554062499999,87.19127142068623L201.99526875,87.89942031608021L202.17207656250002,88.431828362829L202.4588671875,87.58732358997025L202.76816484375,88.22681581917003L202.85772890625,88.92401955997921L203.69721796874998,89.60870889221775L203.72552578124998,90.23418807154725L203.9485078125,90.84834801434373L204.29957109375002,91.54260836852292L204.32439843749998,90.69797138033468L204.3865828125,91.06952047023098L205.6423359375,91.75799916604853L205.90429921875,92.16194869158252L206.37973125,92.78479495378758L206.54888203125,93.41446578804842L206.66884218750002,94.10341356930557L206.67603515625,92.26634159744985L206.79065859375,92.90161023549025L206.81525390625,93.44774601345267L206.91177890625,94.12355123810511L206.94774375000003,94.08970079275306L207.0781453125,94.76183411918294L207.29509453125002,95.41441507863031L207.45171562500002,96.01731279197837L207.68861953125,96.64370132184264L207.87934921875,97.27703952228879L208.17820546875,97.73629721216615L208.20836953124999,98.38624981345811L208.28424375,98.74035015090034L208.52439609375,99.2186489435382L209.40797109375,99.8122854445603L209.941875,99.919941314724L209.99315390625,100.06378510981313L210.26138203124998,100.73114956401992L210.35025,101.3794909169118L210.37461328125,101.91404438451548L210.64284140625,102.53685126584016L210.65165859375003,103.19840945082404L210.727996875,103.80599749748798L210.8751046875,104.44631768568114L211.34612812499998,105.07099910838309L211.8561328125,105.72509834035623L212.05034296875,106.36834718788869L212.38261171875,106.75450961776573L212.80978125,107.40511855926218L213.25133671875003,107.91537388984231L213.29101406249998,105.39150751457412L213.58708593749998,105.13010408953366L214.1407125,105.78199948469333L214.22679609375,106.4243629054933L214.3629984375,107.05946362131856L214.72937578124998,107.60329361418319L214.76278828124998,108.19732984013896L215.1908859375,108.83746768282934L215.35748437499998,109.42774404223458L215.36421328125002,110.01894152797203L215.4693234375,104.5587129186157L215.68905703125,105.11969458048327L215.7496171875,104.06437395319422L215.86563281250002,104.70623055593886L215.89695703125,105.35095001319874L216.1366453125,105.3230035121509L217.228584375,105.80740478629714L217.99498359375,106.43195235115398L218.42981015625,106.04337043647502L218.5961765625,106.68459611308985L218.60290546874998,107.27589521417588L219.45724453124998,107.91243363758782L219.72176015624999,106.88129267532878L219.79601015625002,107.45686363502497L220.21181015625,108.06148954633343L220.27561875,108.68111165169525L220.38165703125003,108.9410719442228L220.71995859375,109.57473670550145L220.967071875,107.27100211312523L221.03830546875,107.81057271085213L221.39331328125,108.43945918063423L221.60655,109.05003149518787L221.71026796875,108.81857333816927L222.42260390625,109.43629084580122L222.79849453125,110.02953065961188L223.0595296875,110.65521822109507L223.06161796875003,111.17554611326905L223.24306640625,111.78404345752057L223.53403359375,112.25390696637399L223.98115781250002,112.81063904228992L224.77818515625,108.69486881373197L224.80834921874998,109.2091505571388L225.14572265625,109.81479005498386L225.25222499999998,110.34299869932195L225.2545453125,110.96653353656713L225.52346953125002,111.42051859389726L226.00470234375,111.856555963404L226.4267671875,112.47014355450503L226.51888359375,113.08564640343259L226.62863437500002,113.50698880024862L226.74070546875,114.07906177072908L226.84419140625,114.59587115918426L227.04745078125,115.20706751949909L227.08434375,115.20902446330653L227.18806171875,115.62430476600206L227.64469921875,115.70905531406495L227.755378125,116.27477954127967L227.76837187499999,116.76029743368713L228.18788437499998,117.06793646522357L228.410634375,117.65281310750255L228.6046125,118.15285660569636L228.75798515625,118.72459005125015L228.9907125,119.05065825176781L229.3930546875,119.5075841633586L229.46034375000002,120.01014268671176L230.0854359375,119.70754502812711L230.51492578124999,117.08483632794244L230.63418984375002,117.5668927841642L230.70008671875001,118.14924455734194L230.75855859375,118.50144733263576L230.95091250000002,114.69497879320633L231.10892578125,115.23942409903839L231.41149453124999,115.50229230992673L231.7625578125,113.96901979543256L232.00410234375,113.70092290881512L232.03171406250001,114.30646296437976L232.39136249999999,114.42547458098647L233.16913125000002,114.97997555541481L233.45940234374999,115.5643710773493L233.59235625,116.15204513615103L234.0791578125,112.99473470685456L234.08983124999997,113.54974614447916L234.25944609374997,113.60884055756243L234.63904921875,113.9436995738534L234.87154453125,114.52189351689935L234.90634921875,115.07352619823342L235.09383046875,113.62589055330898L235.366003125,112.22505117381911L235.51380703125002,112.42018217218991L235.6374796875,110.5378088294334L235.65232968749999,108.09478238999134L235.78203515625,108.56361922141483L235.89039375000002,109.09732825422519L236.36582578125,109.67075674884188L236.4300984375,110.20349229282546L236.622684375,110.75759814826708L237.03848437500002,111.33152835284686L237.23687109374998,106.24978762693394L237.337340625,106.65745470871347L237.39511640625,107.26362076539087L237.4515,107.64661969180018L237.52458984375,104.05594792468158L237.57842109375,104.64467060912257L238.26894609375,105.23104844552651L238.798209375,105.6454809848492L238.94021249999997,106.14189713709374L240.05953125,106.72682707105814L240.07716562500002,107.29437766185734L240.2846015625,107.83191187896871L240.357459375,108.2459083822466L240.39110390625,108.77286941739541L240.65747578125,109.09263041405143L240.73404609374998,109.58996622502345L240.89484374999998,108.145808037251L241.12339453125,108.73740011411418L241.55520468749998,109.27759618627222L241.8280734375,108.85555008158148L241.916709375,109.35967691787863L242.08261171875,109.6265882741284L242.51604609375002,110.06560820098308L242.65526484375,110.52421224707555L242.97686015625,111.07219049480041L243.02187421874999,111.55604903029185L243.45298828125,112.14177565772226L243.49312968750002,112.73110283762183L243.78316875,113.30210378960655L243.92076328125,113.7861320894625L244.43819296875,114.24847209805941L244.50594609375,114.64759124268164L244.942396875,114.88961195562621L244.9911234375,114.6997084613071L245.13915937500002,115.18133563346295L245.359125,115.76329679960604L245.97841640625,115.758767597331L246.15893671875,116.25104114997286L246.80027109375,116.82722440574837L247.03555078125,117.28236384515876L247.11397734374998,117.85729276598454L247.14460546875,116.12164728566033L248.05602421875003,116.69545017660886L248.24512968750003,117.017446723223L248.3694984375,117.54595585081235L248.67438750000002,118.05197797263578L248.96651484375002,118.59926188882045L249.5138765625,118.68341990603095L249.53267109375,119.05143639208839L249.96100078125,119.61736522078606" style="fill: none;" fill="none"></path></g></g></g></g><g opacity="0.2"><g><g><g><path stroke="rgb(238, 51, 119)" stroke-width="2px" d="M24.934774218749997,448.82344061136246L25.351734375000003,144.49570134707858L25.399996875,-2418.83301625933L37.16653359375,426.4840174402509L37.167925781250005,102.29196555273873L37.23521484375,43.78796328817094L37.62131484375,-1205.6593257359098L37.97678671875,29.857804502759645L38.17401328125,460.9995150395802L39.8875640625,-1570.5982156481061L39.899397656249995,87.5126505579267L39.912159374999995,375.2413165824754L56.358534375000005,352.19156042167117L56.668064062499994,139.62261598450795L56.68175390625,462.38420921138356L58.1836921875,469.14876282640864L58.208055468750004,176.3197225161961L58.2495890625,452.60423131712844L64.54923749999999,465.41982453742196L64.65806015625,7.953305993761313L64.66734140625,450.86851341809546L67.80301171875,462.81770962050985L68.51813203125,157.8719538279942L68.54203125000001,471.7324349858931L74.21774765625,365.2239123242242L74.31148828124999,174.23919786725725L74.44421015625001,468.73269256097933L75.72223828125,465.9046376166599L75.72502265625,113.66130239622933L75.96958359375,458.72019029515127L79.43381015625,465.2396951551948L80.02757812499999,90.83005980082919L80.2944140625,457.7420864403248L80.63248359375,172.77744708742412L80.96962500000001,427.85519628013884L81.51698671875,465.02525182600533L81.627665625,46.44587557656423L81.6903140625,457.1453734210559L83.11521796875,465.7343169291105L83.14839843749999,164.63283000673565L83.32497421875,458.863282505955L84.1141125,335.05647070067266L84.13406718750001,33.30332115718294L84.19323515625001,357.1916153005191L84.44707734375,73.69899415969847L84.508565625,343.54651057720184L108.66394687500001,456.27748715451787L109.24889765625001,92.00255911690847L109.31572265624999,3.059964588710226L109.45540546875,444.7503069085734L110.7443390625,-1848.812788827079L110.76498984375,159.7727663857596L111.3132796875,128.88941533224923L111.335090625,468.8171935283712L123.45733125,468.8470604526145L123.5032734375,160.30931036812916L124.1158359375,465.7424178389566L127.2445453125,408.91086065769196L127.301625,60.30625350134711L127.38446015625,464.26684558817317L127.43643515625,408.1812286632402L127.48516171874999,174.22916027477808L127.717425,-159.66858039583482L136.0923609375,412.46122946058L136.53484453125,130.27879296030315L137.00586796875,363.9295979312488L137.01793359375,111.37758432115824L137.46946640625,-1374.015011378697L141.08590546874998,-195.69485623495922L141.244846875,48.872712237494305L141.48499921875,465.7966882831284L141.48523125,465.1752458236047L141.6536859375,29.676223550524007L141.81494765625,445.40055375439783L142.85769609375,-215.89893232073103L143.0760375,114.16728145735604L143.1488953125,433.89154215369905L145.17568828125002,465.3241066357919L145.71910546875,49.43334041322978L145.91633203125002,451.2512079349586L147.16674843750002,379.9720293964658L147.2688421875,131.29641795158386L147.62547421874999,-823.8342512675695L152.33849296875002,465.35772070182225L152.428753125,12.12743731907434L152.45218828125,289.16749160630366L152.73410625,463.7321516275406L152.74895625000002,164.50987703459603L152.88979921875,321.39648291042874L154.28639531250002,-1907.6722665514267L154.32653671875,120.63143072809488L154.3810640625,441.13060185313225L159.76140468749998,430.5706061891147L159.91570546875002,29.828897442136476L159.9238265625,443.78158126984323L177.15098671875,239.42924651077814L177.52641328125,87.24413742337907L177.57096328125,336.34964719840457L177.70113281250002,124.3836817400796L178.01182265625002,466.20683829060624L185.53427578125002,389.7592849220548L185.70853125000002,151.1180406638554L185.7581859375,375.75764220101496L187.02391640625,468.074576529009L187.39145390625,19.60110313551764L187.87686328125,472.0223062634468L194.66656171875,469.0520398467779L195.07308046875,154.2066349983215L195.35175,455.943251149995L195.93832500000002,477.99528394719323L195.99749296875,117.18440692765371L196.07290312499998,457.05549476827895L197.98460859375,-6757.3713046482635L197.99156953125,115.83644567217142L198.66190781249998,-1334.5382754462107L199.00554609375,408.6310514637402L199.09557421875002,89.14889870371134L199.4243625,414.1754121269498L206.91177890625,473.8054785387857L206.94774375000003,75.0569930076599L207.0781453125,472.96820052393844L209.40797109375,436.17059937970976L209.941875,160.96500931467327L209.99315390625,181.6909497806004L215.89695703125,478.8962329940072L216.1366453125,89.11929835591997L217.228584375,386.8719322596278L227.04745078125,478.89677827472667L227.08434375,116.37428580011637L227.18806171875,363.07036645071844L227.64469921875,166.24210023880002L227.755378125,453.81923403484484L234.08983124999997,450.2184342422656L234.25944609374997,149.47856722559246L234.63904921875,317.33109217030665L245.359125,480.1396724662544L245.97841640625,112.92126355852396L246.15893671875,424.839321741036L248.96651484375002,463.4971913312163L249.5138765625,171.7507792200361L249.53267109375,351.24647436823165" style="fill: none;" fill="none"></path></g></g></g></g></g></g><g transform="translate(51, 177)" clip-path="url(#clip_1)"><clipPath id="clip_1"><rect width="278" height="22"></rect></clipPath><g><g><line x1="0" y1="0" x2="0" y2="5" style="visibility: inherit;" fill="rgb(0, 0, 0)" stroke="rgb(204, 204, 204)" stroke-width="1px"></line><line x1="23.203125" y1="0" x2="23.203125" y2="5" style="visibility: inherit;" fill="rgb(0, 0, 0)" stroke="rgb(204, 204, 204)" stroke-width="1px"></line><line x1="46.40625" y1="0" x2="46.40625" y2="5" style="visibility: inherit;" fill="rgb(0, 0, 0)" stroke="rgb(204, 204, 204)" stroke-width="1px"></line><line x1="69.609375" y1="0" x2="69.609375" y2="5" style="visibility: inherit;" fill="rgb(0, 0, 0)" stroke="rgb(204, 204, 204)" stroke-width="1px"></line><line x1="92.8125" y1="0" x2="92.8125" y2="5" style="visibility: inherit;" fill="rgb(0, 0, 0)" stroke="rgb(204, 204, 204)" stroke-width="1px"></line><line x1="116.015625" y1="0" x2="116.015625" y2="5" style="visibility: inherit;" fill="rgb(0, 0, 0)" stroke="rgb(204, 204, 204)" stroke-width="1px"></line><line x1="139.21875" y1="0" x2="139.21875" y2="5" style="visibility: inherit;" fill="rgb(0, 0, 0)" stroke="rgb(204, 204, 204)" stroke-width="1px"></line><line x1="162.421875" y1="0" x2="162.421875" y2="5" style="visibility: inherit;" fill="rgb(0, 0, 0)" stroke="rgb(204, 204, 204)" stroke-width="1px"></line><line x1="185.625" y1="0" x2="185.625" y2="5" style="visibility: inherit;" fill="rgb(0, 0, 0)" stroke="rgb(204, 204, 204)" stroke-width="1px"></line><line x1="208.828125" y1="0" x2="208.828125" y2="5" style="visibility: inherit;" fill="rgb(0, 0, 0)" stroke="rgb(204, 204, 204)" stroke-width="1px"></line><line x1="232.03125" y1="0" x2="232.03125" y2="5" style="visibility: inherit;" fill="rgb(0, 0, 0)" stroke="rgb(204, 204, 204)" stroke-width="1px"></line><line x1="255.234375" y1="0" x2="255.234375" y2="5" style="visibility: inherit;" fill="rgb(0, 0, 0)" stroke="rgb(204, 204, 204)" stroke-width="1px"></line><line x1="278.4375" y1="0" x2="278.4375" y2="5" style="visibility: inherit;" fill="rgb(0, 0, 0)" stroke="rgb(204, 204, 204)" stroke-width="1px"></line></g><g transform="translate(0, 8)"><text x="0" y="0" dx="0em" dy="0.95em" style="text-anchor: middle; visibility: hidden; font-family: Roboto, sans-serif; font-size: 12px; font-weight: 200;" fill="rgb(255, 255, 255)" stroke="none" stroke-width="1px">-100k</text><text x="23.203125" y="0" dx="0em" dy="0.95em" style="text-anchor: middle; visibility: inherit; font-family: Roboto, sans-serif; font-size: 12px; font-weight: 200;" fill="rgb(255, 255, 255)" stroke="none" stroke-width="1px">0</text><text x="46.40625" y="0" dx="0em" dy="0.95em" style="text-anchor: middle; visibility: hidden; font-family: Roboto, sans-serif; font-size: 12px; font-weight: 200;" fill="rgb(255, 255, 255)" stroke="none" stroke-width="1px">100k</text><text x="69.609375" y="0" dx="0em" dy="0.95em" style="text-anchor: middle; visibility: inherit; font-family: Roboto, sans-serif; font-size: 12px; font-weight: 200;" fill="rgb(255, 255, 255)" stroke="none" stroke-width="1px">200k</text><text x="92.8125" y="0" dx="0em" dy="0.95em" style="text-anchor: middle; visibility: hidden; font-family: Roboto, sans-serif; font-size: 12px; font-weight: 200;" fill="rgb(255, 255, 255)" stroke="none" stroke-width="1px">300k</text><text x="116.015625" y="0" dx="0em" dy="0.95em" style="text-anchor: middle; visibility: inherit; font-family: Roboto, sans-serif; font-size: 12px; font-weight: 200;" fill="rgb(255, 255, 255)" stroke="none" stroke-width="1px">400k</text><text x="139.21875" y="0" dx="0em" dy="0.95em" style="text-anchor: middle; visibility: hidden; font-family: Roboto, sans-serif; font-size: 12px; font-weight: 200;" fill="rgb(255, 255, 255)" stroke="none" stroke-width="1px">500k</text><text x="162.421875" y="0" dx="0em" dy="0.95em" style="text-anchor: middle; visibility: inherit; font-family: Roboto, sans-serif; font-size: 12px; font-weight: 200;" fill="rgb(255, 255, 255)" stroke="none" stroke-width="1px">600k</text><text x="185.625" y="0" dx="0em" dy="0.95em" style="text-anchor: middle; visibility: hidden; font-family: Roboto, sans-serif; font-size: 12px; font-weight: 200;" fill="rgb(255, 255, 255)" stroke="none" stroke-width="1px">700k</text><text x="208.828125" y="0" dx="0em" dy="0.95em" style="text-anchor: middle; visibility: inherit; font-family: Roboto, sans-serif; font-size: 12px; font-weight: 200;" fill="rgb(255, 255, 255)" stroke="none" stroke-width="1px">800k</text><text x="232.03125" y="0" dx="0em" dy="0.95em" style="text-anchor: middle; visibility: hidden; font-family: Roboto, sans-serif; font-size: 12px; font-weight: 200;" fill="rgb(255, 255, 255)" stroke="none" stroke-width="1px">900k</text><text x="255.234375" y="0" dx="0em" dy="0.95em" style="text-anchor: middle; visibility: inherit; font-family: Roboto, sans-serif; font-size: 12px; font-weight: 200;" fill="rgb(255, 255, 255)" stroke="none" stroke-width="1px">1M</text><text x="278.4375" y="0" dx="0em" dy="0.95em" style="text-anchor: middle; visibility: hidden; font-family: Roboto, sans-serif; font-size: 12px; font-weight: 200;" fill="rgb(255, 255, 255)" stroke="none" stroke-width="1px">1.1M</text></g><line x1="0" y1="0" x2="278.4375" y2="0" fill="rgb(0, 0, 0)" stroke="rgb(204, 204, 204)" stroke-width="1px"></line></g></g></g></g></svg>